<?xml version="1.0"?>
<svg id="b" data-name="Layer 2" xmlns="http://www.w3.org/2000/svg" viewBox="0 0 511.62 130.29">
  <g id="c" data-name="Layer 1">
    <g fill="#24333f">
      <path d="M42.12,45.13c-8.11,0-15.69,2.31-22.12,6.3V16.35c0-5.52-4.48-10-10-10S0,10.82,0,16.35v71.13c0,.07,0,.15.01.22.24,23.03,19.03,41.69,42.11,41.69s42.13-18.9,42.13-42.13-18.9-42.13-42.13-42.13ZM42.12,109.39c-12.2,0-22.12-9.93-22.12-22.13s9.92-22.13,22.12-22.13,22.13,9.93,22.13,22.13-9.93,22.13-22.13,22.13Z"></path>
      <path d="M132.67,45.5c-24.96,0-42.56,17.6-42.56,41.6s17.6,41.6,42.56,41.6c18.72,0,33.12-9.76,39.04-24.8h-20.32c-4,5.12-10.24,7.52-18.72,7.52-11.2,0-20-6.08-22.56-17.6h64.8v-6.72c0-24-17.28-41.6-42.24-41.6ZM110.59,78.62c3.04-10.4,11.36-15.84,22.08-15.84s19.04,5.28,22.08,15.84h-44.16Z"></path>
      <path d="M331.2,45.5c-24.96,0-42.56,17.6-42.56,41.6s17.6,41.6,42.56,41.6c18.72,0,33.12-9.76,39.04-24.8h-20.32c-4,5.12-10.24,7.52-18.72,7.52-11.2,0-20-6.08-22.56-17.6h64.8v-6.72c0-24-17.28-41.6-42.24-41.6ZM309.12,78.62c3.04-10.4,11.36-15.84,22.08-15.84s19.04,5.28,22.08,15.84h-44.16Z"></path>
      <path d="M472.64,12.62c0-7.3-4.27-12.62-13.97-12.62h-16.01v38.22h7.48v-12.92h6.9l8.12,12.92h8.88l-9.41-13.73c5.14-1.69,8.01-5.84,8.01-11.86ZM458.79,18.35h-8.65V6.95h8.65c4.73,0,6.31,2.4,6.31,5.67s-1.58,5.73-6.31,5.73Z"></path>
      <polygon points="498.35 18.64 511.03 0 502.39 0 493.5 13.97 484.68 0 475.74 0 488.36 18.64 475.15 38.22 483.74 38.22 493.27 23.26 502.68 38.22 511.62 38.22 498.35 18.64"></polygon>
      <path d="M223.59,41.91h-18.05v-25.57c0-5.52-4.48-10-10-10s-10,4.48-10,10v82.1c0,15.96,12.98,28.94,28.94,28.94,5.52,0,10-4.48,10-10s-4.48-10-10-10c-4.93,0-8.94-4.01-8.94-8.94v-36.53h18.05c5.52,0,10-4.48,10-10s-4.48-10-10-10Z"></path>
      <path d="M281.12,61.91c5.52,0,10-4.48,10-10s-4.48-10-10-10h-18.05v-25.57c0-5.52-4.48-10-10-10s-10,4.48-10,10v82.1c0,15.96,12.98,28.94,28.94,28.94,5.52,0,10-4.48,10-10s-4.48-10-10-10c-4.93,0-8.94-4.01-8.94-8.94v-36.53h18.05Z"></path>
      <path d="M430.64,46.92h-7.56c-23.84,0-43.23,19.39-43.23,43.23v30.14c0,5.52,4.48,10,10,10s10-4.48,10-10v-30.14c0-12.81,10.42-23.23,23.23-23.23h7.56c5.52,0,10-4.48,10-10s-4.48-10-10-10Z"></path>
    </g>
  </g>
</svg>